<?xml version="1.0" encoding="UTF-8" standalone="no"?>
<!-- Created with Inkscape (http://www.inkscape.org/) -->

<svg
   xmlns:dc="http://purl.org/dc/elements/1.1/"
   xmlns:cc="http://creativecommons.org/ns#"
   xmlns:rdf="http://www.w3.org/1999/02/22-rdf-syntax-ns#"
   xmlns:svg="http://www.w3.org/2000/svg"
   xmlns="http://www.w3.org/2000/svg"
   xmlns:sodipodi="http://sodipodi.sourceforge.net/DTD/sodipodi-0.dtd"
   xmlns:inkscape="http://www.inkscape.org/namespaces/inkscape"
   width="147.98mm"
   height="216.69701mm"
   viewBox="0 0 147.98 216.69701"
   version="1.1"
   id="svg8450"
   inkscape:version="0.92.2 (5c3e80d, 2017-08-06)"
   sodipodi:docname="bucuresti.svg">
  <defs
     id="defs8444" />
  <sodipodi:namedview
     id="base"
     pagecolor="#ffffff"
     bordercolor="#666666"
     borderopacity="1.0"
     inkscape:pageopacity="0.0"
     inkscape:pageshadow="2"
     inkscape:zoom="0.70710678"
     inkscape:cx="-181.37664"
     inkscape:cy="310.10251"
     inkscape:document-units="mm"
     inkscape:current-layer="layer1"
     showgrid="false"
     inkscape:window-width="1920"
     inkscape:window-height="1017"
     inkscape:window-x="-8"
     inkscape:window-y="-8"
     inkscape:window-maximized="1"
     inkscape:snap-global="false"
     showguides="true"
     inkscape:guide-bbox="true">
    <sodipodi:guide
       position="73.988839,108.2134"
       orientation="1,0"
       id="guide8433"
       inkscape:locked="false" />
    <sodipodi:guide
       position="73.814615,108.34924"
       orientation="0,1"
       id="guide8435"
       inkscape:locked="false" />
  </sodipodi:namedview>
  <metadata
     id="metadata8447">
    <rdf:RDF>
      <cc:Work
         rdf:about="">
        <dc:format>image/svg+xml</dc:format>
        <dc:type
           rdf:resource="http://purl.org/dc/dcmitype/StillImage" />
        <dc:title />
      </cc:Work>
    </rdf:RDF>
  </metadata>
  <g
     inkscape:label="Layer 1"
     inkscape:groupmode="layer"
     id="layer1"
     transform="translate(0,-80.303)">
    <path
       inkscape:connector-curvature="0"
       id="path8451"
       d="m 86.921473,80.30312 -5.32293,29.55486 3.41774,0.61552 c 4.02104,0.72418 6.3373,0.31109 7.90896,-1.73067 1.53145,-2.04909 2.3515,-5.67924 3.39442,-11.469634 1.04292,-5.790311 1.54826,-9.518828 0.82793,-11.973435 -0.76053,-2.461846 -2.78734,-3.656938 -6.80837,-4.381119 z m -39.657033,1.931015 -3.979612,1.093108 2.423883,8.82497 c -0.441151,-0.217801 -0.832361,-0.406808 -1.26265,-0.5852 -0.710031,-0.271125 -1.616782,-0.488202 -2.36533,-0.282627 -1.103241,0.302975 -1.678792,1.139194 -1.93512,2.056967 -0.285041,0.968121 -0.229061,2.096698 0.02011,3.00289 l 3.775972,13.750187 c 0.248848,0.9062 0.777669,1.90512 1.50627,2.55241 0.700048,0.69756 1.62169,1.12215 2.724849,0.81917 0.35461,-0.0974 0.727,-0.28415 1.06689,-0.58938 0.65115,-0.56011 1.11225,-1.19517 1.6089,-2.00952 l 0.38951,1.41813 3.97922,-1.09271 z m 43.217783,3.193667 c 1.48785,0.267909 2.30332,0.5811 2.49209,2.068147 0.0708,0.759972 0.0434,1.834259 -0.16295,3.208626 -0.2133,1.414582 -0.55376,3.304739 -0.98839,5.717443 -0.43456,2.412542 -0.77485,4.302702 -1.06858,5.702802 -0.29365,1.40019 -0.64247,2.41665 -0.96675,3.06394 -0.70295,1.36801 -1.57657,1.37654 -3.06434,1.10855 z m -10.32046,1.654582 c -1.35708,0.02574 -2.2726,0.537909 -2.90188,1.094395 -0.67254,0.634421 -0.97833,1.3204 -1.02747,1.605118 l 0.0724,-2.491686 -4.12463,-0.119677 -0.6501,22.339586 4.12471,0.12008 0.45177,-15.519545 c 0.0201,-0.694342 0.16262,-1.384904 0.95758,-2.015787 0.67126,-0.593645 1.44973,-0.65276 2.10313,-0.633779 0.36764,0.01046 0.77477,0.06354 1.13879,0.196567 l 0.13303,-4.573584 h -0.27723 z m -18.215281,0.389918 c -0.13874,-0.008 -0.28182,-0.008 -0.42812,7.94e-4 -0.15603,0.008 -0.31649,0.01769 -0.48129,0.03539 -1.34042,0.145497 -2.32535,0.54016 -2.94972,1.224448 -1.33005,1.377263 -1.84834,3.036429 -1.73646,5.202377 l 1.21238,11.170439 c 0.15965,1.0923 0.50936,2.04072 0.96756,2.8541 0.80863,1.39174 2.30783,2.70844 4.94806,2.42187 1.34043,-0.14558 2.32496,-0.53992 2.99002,-1.22855 1.3344,-1.33673 1.82131,-2.91048 1.70944,-5.07651 l -0.27805,-2.559 -3.81795,0.41477 0.26437,2.43683 c 0.0483,0.44678 0.0475,0.81692 -0.0394,1.15504 -0.0964,0.62694 -0.40906,1.15391 -1.18078,1.23772 -0.36563,0.0394 -0.66313,-0.0515 -0.88825,-0.23236 -0.41413,-0.40713 -0.72378,-0.98968 -0.85697,-1.83828 l -0.52496,-4.833774 6.78345,-0.736486 -0.7007,-6.458433 c -0.15531,-1.051687 -0.50075,-1.959246 -0.95887,-2.772623 -0.70689,-1.187531 -1.95032,-2.34844 -4.03367,-2.417689 z m 60.100088,3.340771 -1.85781,3.684524 3.68452,1.857906 1.85783,-3.684605 z m -60.485818,0.260993 c 0.3127,-0.008 0.59597,0.07882 0.79302,0.236943 0.45909,0.443324 0.68799,1.035198 0.78056,1.888227 l 0.33958,3.127555 -2.9655,0.321715 -0.33957,-3.127635 c -0.008,-0.451206 -0.008,-0.820937 0.0796,-1.15914 0.13689,-0.631286 0.4044,-1.194771 1.1762,-1.278496 0.0458,-0.008 0.0913,-0.008 0.13592,-0.0088 z m 45.300468,1.750694 c -0.0814,0 -0.16166,0 -0.24064,3.97e-4 -0.37899,0.01206 -0.72942,0.08147 -1.05233,0.209436 -1.76075,0.668685 -2.91572,1.946376 -3.7648,3.942218 L 97.996363,107.5479 c -0.33531,1.05176 -0.43721,2.05737 -0.38204,2.98922 0.11679,1.60543 0.84845,3.43213 3.347117,4.33205 1.26845,0.45684 2.32649,0.53397 3.22609,0.20662 1.7469,-0.63032 2.87452,-1.83088 3.72361,-3.82672 l 3.88986,-10.80215 c 0.32155,-1.013245 0.4093,-1.980482 0.35404,-2.91233 -0.13054,-1.566914 -0.90072,-3.407608 -3.3994,-4.307526 -0.6937,-0.249811 -1.32442,-0.385977 -1.89442,-0.402304 z m -61.554009,1.630853 c 0.546589,0 1.158978,0.454665 1.310507,1.006245 l 3.321714,12.095612 c 0.20557,0.74855 -0.23405,1.46236 -0.82504,1.62466 -0.59099,0.16231 -1.21504,-0.25922 -1.420621,-1.00785 L 44.37166,96.078667 c -0.205571,-0.748632 0.11598,-1.429943 0.706969,-1.592248 0.074,-0.02011 0.150479,-0.03056 0.228582,-0.03056 z m -14.92477,1.523725 c -0.665631,0.01448 -1.395683,0.173967 -2.188232,0.536138 -1.22638,0.560347 -2.03654,1.244958 -2.41359,2.091068 -0.79117,1.709196 -0.723939,3.430376 0.0652,5.450906 l 4.670421,10.21944 c 0.49561,0.98638 1.126088,1.77651 1.81713,2.40402 1.20587,1.06616 3.006349,1.86056 5.42187,0.75684 1.226299,-0.56043 2.035969,-1.24488 2.4501,-2.10804 0.808228,-1.67196 0.775169,-3.31906 -0.01371,-5.33959 L 35.419795,99.547884 c -0.478642,-0.949221 -1.09239,-1.701954 -1.783432,-2.32954 -0.743079,-0.643109 -1.739598,-1.188176 -2.972168,-1.236915 h -5.29e-4 c -0.0924,0 -0.186269,-0.008 -0.281419,0 z m 76.650899,0.547398 c 0.15402,-0.008 0.32146,0.01769 0.50413,0.08308 0.34592,0.124584 0.61221,0.350751 0.7352,0.612224 0.21827,0.599678 0.16415,1.231526 -0.16496,2.024956 l -3.80718,10.571484 c -0.11381,0.43665 -0.27685,0.7685 -0.50292,1.03447 -0.36137,0.52118 -0.87346,0.85818 -1.60383,0.59518 -0.34602,-0.12459 -0.57354,-0.337 -0.69668,-0.59847 -0.19368,-0.5474 -0.17823,-1.19324 0.15089,-1.98667 l 3.80718,-10.571086 c 0.1138,-0.436647 0.27683,-0.76898 0.50292,-1.034958 0.27103,-0.390965 0.61302,-0.707291 1.07525,-0.730212 z m -95.039501,0.888176 v 0 c -0.91898,0.02735 -1.92812,0.327747 -2.9970201,1.044448 -1.22171,0.819168 -1.94444,1.79566 -2.28184,2.75976 -0.3374,0.96418 -0.32341,1.93857 -0.17373,2.82208 0.15008,1.03078 0.56067,2.08375 1.18665,3.09064 l 9.8524401,14.6941 c 0.71655,0.99531 1.53483,1.77482 2.43137,2.30501 0.76053,0.47389 1.63375,0.82303 2.65383,0.877 1.04276,0.0878 2.19811,-0.24402 3.41975,-1.06319 1.22163,-0.81917 1.93311,-1.73887 2.247739,-2.73691 0.337402,-0.9641 0.379953,-1.92732 0.230273,-2.81083 -0.150001,-1.03078 -0.560832,-2.08351 -1.209493,-3.12434 l -2.298008,-3.42763 -3.427711,2.29801 2.29849,3.42764 c 0.25021,0.37326 0.42088,0.70133 0.47831,1.00712 0.17172,0.62284 0.1393,1.23547 -0.64126,1.7589 -0.30539,0.20477 -0.61102,0.26164 -0.89445,0.20574 -0.5897,-0.14582 -1.11209,-0.48426 -1.62386,-1.17418 l -9.85244,-14.69402 c -0.1936,-0.36209 -0.36451,-0.69024 -0.44469,-1.02997 -0.1262,-0.55496 -0.1389,-1.23475 0.50581,-1.66705 0.37335,-0.2503 0.74686,-0.35349 1.0303,-0.29759 0.64632,0.15692 1.13428,0.5182 1.58935,1.19702 l 2.29841,3.42764 3.42732,-2.29842 -2.29802,-3.42723 c -0.69386,-0.961367 -1.51198,-1.741285 -2.4086,-2.271472 -0.76045,-0.473886 -1.69069,-0.834288 -2.71069,-0.888175 -0.12748,-0.008 -0.25689,-0.008 -0.38823,-0.008 z m 106.594291,0.256889 -10.30051,20.430529 -0.42306,0.83919 c -0.15505,0.30756 -0.34141,0.59614 -0.51539,0.85657 -9.176507,-4.71916 -19.411637,-7.52749 -30.199067,-8.02824 -1.1108,-0.0507 -2.21847,-0.0756 -3.32171,-0.0756 -34.199942,0.0193 -64.4550841,24.85917 -71.9700341,59.65082 -2.39943,11.10947 -2.47173,21.16805 -0.23525,32.63211 1.23933,6.35322 2.99654,11.44061 6.33835,18.34535 3.9663501,8.19498 7.4105501,13.13267 13.7568701,19.72361 11.16376,11.59358 24.20907,18.63209 40.034003,21.60099 5.51267,1.03427 21.233841,0.89181 26.278901,-0.23815 5.34779,-1.19762 10.36156,-2.77025 14.547797,-4.56318 22.91747,-9.81548 39.43682,-30.7268 44.45759,-56.27803 0.8178,-4.16041 0.94302,-6.06377 0.94302,-14.32292 0,-10.54904 -0.61302,-15.06665 -3.15626,-23.25229 -5.83302,-18.77353 -18.06448,-33.91771 -33.852,-43.19863 v -7.9e-4 c 0.40399,-0.65011 0.72916,-1.29394 0.9825,-1.79638 l 10.31927,-20.467132 z m -88.278802,1.9771 c 0.11847,0 0.230992,0.02332 0.332492,0.06113 0.575389,0.276112 0.978659,0.765439 1.29804,1.562739 l 4.669938,10.21944 c 0.223912,0.39185 0.339731,0.74356 0.364101,1.09182 0.10609,0.62533 -0.0249,1.22389 -0.730689,1.54657 -0.334431,0.15281 -0.64561,0.16021 -0.916411,0.0595 -0.521179,-0.25601 -0.96153,-0.72838 -1.28099,-1.52574 l -4.670021,-10.21993 c -0.223829,-0.39177 -0.339648,-0.74324 -0.364098,-1.09142 -0.105921,-0.62541 -0.0298,-1.24431 0.676651,-1.566916 0.209028,-0.09555 0.423457,-0.140831 0.620987,-0.136729 z m 98.783782,4.214469 c -0.1176,0 -0.23356,0.01 -0.34826,0.0257 -1.86997,0.22504 -3.29886,1.18705 -4.60351,2.91981 l -6.24023,9.34373 c -0.57876,0.94006 -0.91945,1.89153 -1.09021,2.80922 -0.27329,1.5863 0,3.53581 2.20536,5.0108 1.12118,0.74887 2.12943,1.07831 3.08147,0.97713 1.84721,-0.1911 3.23066,-1.08531 4.5353,-2.8179 l 6.37656,-9.54739 c 0.55601,-0.90611 0.87418,-1.82372 1.04492,-2.74149 0.25063,-1.55228 -0.0539,-3.52423 -2.26229,-4.99914 -0.98107,-0.65525 -1.87576,-0.98975 -2.69911,-0.9801 z m 0.01,3.74855 c 0.21933,-0.008 0.45048,0.0603 0.6925,0.2215 0.30579,0.20421 0.50959,0.48764 0.56605,0.77099 0.0676,0.63458 -0.13705,1.23482 -0.64753,1.92563 l -6.24063,9.34373 c -0.21579,0.39644 -0.45386,0.67947 -0.73737,0.88319 -0.4763,0.41879 -1.05426,0.62228 -1.69995,0.19118 -0.30571,-0.20429 -0.47557,-0.4648 -0.53195,-0.74815 -0.0563,-0.57796 0.11461,-1.20112 0.62509,-1.89192 l 6.24023,-9.34374 c 0.21563,-0.39643 0.45386,-0.67946 0.73729,-0.88319 0.29775,-0.2618 0.6308,-0.46142 0.99627,-0.46922 z m -56.580527,8.00041 v 8e-4 c 4.09881,0.0193 7.81092,0.53042 11.07432,1.56233 25.359357,8.01674 33.372797,40.92097 14.66997,60.2369 -1.08675,1.12231 -2.22152,2.15968 -3.40061,3.1118 h 2.98914 v 1.91316 h -5.59222 c 0.88979,-0.59365 1.7581,-1.2304 2.60308,-1.91276 H 9.1967689 v 1.91316 H 92.261553 c -0.85215,0.56863 -1.72424,1.09664 -2.61555,1.58316 h 3.3267 v 12.60633 H 51.010092 c 0.5096,-0.42893 1.03601,-0.84346 1.57448,-1.2452 H 32.04136 v -6.78763 -0.63048 h 42.969173 v 0.20324 c 2.72268,-0.16568 5.35125,-0.61906 7.86948,-1.35329 v -1.84166 h 1.96511 v 1.2045 c 1.65402,-0.59308 3.25625,-1.31227 4.80088,-2.15541 H 14.079199 v 12.60633 h 36.930093 c -0.60499,0.50917 -1.18649,1.03805 -1.74563,1.58314 h 27.142961 v 8.90939 l 1.58356,-0.0395 v -8.86947 h 11.13295 v 31.93306 c 0.0426,0.13492 0.082,0.27015 0.11518,0.40482 0.43077,1.7492 0.41171,3.84491 0.34576,7.40648 -0.0145,0.79076 -0.029,1.46551 -0.0442,2.07981 h 3.43263 v 11.6255 h -18.83209 v -4.0083 c -0.52463,6e-5 -1.11812,2.7e-4 -1.58356,-0.002 v 5.67664 h 22.2606 v 2.1305 h -22.2606 v 1.38696 h 23.76607 v 3.52286 h -23.76607 -4.255971 v -12.83498 c -0.74437,-0.0564 -1.39568,-0.13622 -1.97549,-0.25894 -0.98075,-0.20761 -2.06895,-0.66149 -2.72236,-1.64632 -0.65348,-0.98482 -0.6205,-1.8912 -0.6205,-2.52742 0,-0.69704 0.11227,-1.48404 0.52946,-2.234 0.41718,-0.74995 1.13131,-1.3418 1.84753,-1.67621 0.91833,-0.42889 1.85099,-0.59964 2.94136,-0.66792 v -16.10848 c 0,-2.24772 -0.51354,-4.37083 -1.4289,-6.26016 -0.55037,-0.0987 -1.07179,-0.25354 -1.59772,-0.49834 -0.72128,-0.33578 -1.44788,-0.97257 -1.83289,-1.73236 -0.38469,-0.75976 -0.45884,-1.50207 -0.45884,-2.16333 0,-0.15045 0.008,-0.31276 0.0169,-0.48212 -2.45863,-1.99078 -5.5931,-3.18287 -9.01744,-3.18287 h -0.91271 c -7.932772,0 -14.318742,6.38655 -14.318742,14.31918 v 8.10515 c -0.228499,-1.60316 -0.305469,-3.37726 -0.305469,-6.08062 0,-6.30117 0.803569,-10.18811 3.172439,-15.34331 0.313589,-0.68237 0.62018,-1.31541 0.929351,-1.91644 -4.87254,3.3817 -8.051972,9.017 -8.051972,15.42308 v 25.97839 c -0.532518,-0.36592 -1.060608,-0.73891 -1.583478,-1.11929 v 0.0108 c -0.4245,-0.3089 -0.84651,-0.62229 -1.26434,-0.94055 v -0.0117 c -0.635151,-0.48359 -1.263132,-0.97731 -1.882439,-1.48214 h 1.882439 v 1.48214 c 0.418229,0.31846 0.83944,0.63234 1.26434,0.94139 v -7.42588 h -8.671269 c 1.75552,1.76358 3.600241,3.43344 5.52369,5.00165 h -0.01 c -1.922571,-1.56868 -3.767041,-3.23813 -5.521601,-5.00206 h 0.008 c -0.28906,-0.29045 -0.57531,-0.58397 -0.85946,-0.87946 h 5.680769 v -40.9439 H 17.928149 v 34.55899 c -0.54145,-0.71671 -1.0689,-1.44426 -1.58308,-2.18247 v 0.003 c -0.041,-0.059 -0.0813,-0.11921 -0.12225,-0.17831 0.0402,0.0585 0.0817,0.11664 0.12225,0.17496 v -32.37651 h -2.266 v 28.90855 C 5.9882489,213.95508 2.3259289,199.05642 3.2893789,183.16306 c 1.94871,-32.15513 25.1401191,-59.58745 55.8353731,-66.04653 4.81222,-1.01276 9.29813,-1.51471 13.396941,-1.50498 z m 12.32289,70.56437 c -0.64713,0.23196 -1.3023,0.44389 -1.96511,0.63716 v 0.12346 h 1.96511 z m -9.83459,1.99045 c -0.71774,0.0434 -1.4412,0.07 -2.17166,0.0732 -2.41117,0.0121 -4.896981,0.35622 -7.362371,0.98341 h 8.273071 v 4.89731 H 54.389152 c 3.3986,-2.22434 7.2168,-3.91278 11.08735,-4.89731 H 33.302329 v 4.89771 h 21.085613 c -0.6156,0.40303 -1.21761,0.82311 -1.80337,1.26024 h 22.425961 z m -1.756,-60.4584 c -8.208241,0 -8.315051,0.0185 -9.372851,1.0216 -0.5881,0.56212 -1.17748,1.46702 -1.30882,2.0108 -0.13086,0.54378 -0.18539,7.6257 -0.11839,15.73694 l 0.12088,14.74767 1.15174,1.0212 c 1.13646,1.00737 1.26628,1.02081 9.540311,1.02081 h 8.38816 l 1.34123,-1.23531 1.34083,-1.23434 0.12885,-14.11019 c 0.14083,-15.17466 -8e-5,-16.626 -1.83828,-18.11047 -1.00102,-0.81193 -1.62065,-0.86871 -9.37326,-0.86871 z m 6.77009,4.21237 v 13.55651 13.55693 h -6.58261 c -4.916131,0 -6.633121,-0.13593 -6.781441,-0.53325 -0.10865,-0.29308 -0.14911,-6.34149 -0.0886,-13.44054 l 0.1089,-12.90689 6.672131,-0.11557 z m -52.796284,37.8724 v 3.14211 h -13.14949 v 6.00546 h 78.831164 v -6.00546 h -13.14882 v -3.14211 z m 0.741479,0.32042 h 3.810072 v 6.3583 h -3.810072 v -5.81958 z m 11.842901,0 h 3.809669 v 6.3583 h -3.809669 v -5.81958 z m 11.842093,0 h 3.81048 v 6.3583 h -3.81048 v -5.81958 z m 11.84282,0 h 3.81007 v 6.3583 h -3.81007 v -5.81958 z m 11.842501,0 h 3.81047 v 6.3583 h -3.81047 v -5.81958 z m -46.292574,1.07775 v 4.2024 h 1.65458 v -4.2024 z m 11.842501,0 v 4.2024 h 1.654979 v -4.2024 z m 11.842822,0 v 4.2024 h 1.65466 v -4.2024 z m 11.8429,0 v 4.2024 h 1.65466 v -4.2024 z m 11.842101,0 v 4.2024 h 1.65498 v -4.2024 z M 16.139729,184.9722 h 1.96512 v 1.96512 h -1.96512 z m 6.06779,0 h 1.96464 v 1.96512 h -1.96464 z m 6.066909,0 h 1.965122 v 1.96512 h -1.965122 z m 6.067711,0 h 1.964711 v 1.96512 h -1.964711 z m 6.066981,0 h 1.965039 v 1.96512 H 40.40912 Z m 6.067308,0 h 1.964644 v 1.96512 h -1.964644 z m 6.067714,0 h 1.96472 v 1.96512 h -1.96472 z m 6.06691,0 h 1.96511 v 1.96512 h -1.96511 z m 6.06779,0 h 1.96463 v 1.96512 h -1.96463 z m 6.066901,0 h 1.96504 v 1.96512 h -1.96504 z m 6.06771,0 h 1.96472 v 1.96512 h -1.96472 z m 12.1347,0 v 1.96512 h 1.96463 v -1.96512 z m -71.305854,2.99171 h 11.7414 v 7.41811 h -11.74175 v -6.78763 z m 60.026914,0 v 0.63048 6.78763 h 11.74108 v -7.41811 z m -58.765944,1.25976 v 4.89771 h 9.219471 v -4.89771 z m 60.026994,0 h 9.21907 v 4.89771 h -9.21907 z m -48.284713,8.98751 v 40.94427 h 2.266479 v -16.55361 c 0,-7.96811 4.571421,-14.85921 11.236471,-18.19823 -0.568471,0.87517 -1.08884,1.77927 -1.60102,2.77472 3.032648,-2.10472 6.720802,-3.33707 10.707812,-3.33707 h 0.54201 c 4.44619,0 8.52023,1.53291 11.72813,4.09934 0.10038,-0.0387 0.20059,-0.0737 0.29928,-0.10474 0.49777,-0.15684 1.02241,-0.26447 1.59474,-0.34581 -3.60522,-3.25185 -8.37996,-5.23232 -13.62215,-5.23232 h -0.54201 c -3.27458,0 -6.366743,0.77331 -9.105993,2.14545 1.00898,-1.55321 2.172311,-3.01911 3.730693,-4.75436 0.44172,-0.49189 0.90483,-0.97043 1.38402,-1.43764 z m 60.061503,0 h 2.266 v 40.94427 h -2.266 z m -7.16372,5.23815 v 5.3e-4 c -2.06573,0.006 -3.78079,1.58564 -4.00503,3.59311 l 1.10308,-0.027 -5.3e-4,3.26807 c 0.7385,0.77165 1.77458,1.25598 2.91981,1.25479 2.2216,-0.002 4.04154,-1.82245 4.04154,-4.04406 h -1.81881 c 0,1.23919 -0.98453,2.22314 -2.22362,2.22527 -1.23925,0.002 -2.229,-0.98148 -2.229,-2.22071 0,-1.23916 0.97986,-2.22663 2.21903,-2.23066 1.23916,-0.004 2.22546,0.97734 2.23359,2.21653 l 1.81881,-0.008 c -0.01,-2.22161 -1.83739,-4.03465 -4.059,-4.02743 z m -60.061494,5.3e-4 c 2.2216,-0.007 4.04983,1.80583 4.0594,4.02743 l -1.81922,0.008 c -0.008,-1.2392 -0.99426,-2.22076 -2.23351,-2.21654 -1.23916,0.004 -2.22192,0.99148 -2.21903,2.23066 0,1.23921 0.98976,2.22212 2.22901,2.22069 1.23916,-0.002 2.22353,-0.98559 2.22353,-2.22484 h 1.81922 c 0,2.22164 -1.819859,4.0415 -4.04155,4.04363 -2.2216,0.002 -4.04452,-1.81373 -4.04943,-4.03533 -0.008,-2.22162 1.80997,-4.04639 4.03158,-4.0536 z m 56.234374,4.5133 -1.36697,0.0345 -5.89069,0.14463 c -3.170981,0.0784 -4.986821,0.14353 -6.355801,0.57482 -0.68453,0.21565 -1.33705,0.59953 -1.73276,1.20822 -0.39571,0.60872 -0.46174,1.26217 -0.46174,1.83458 0,0.58016 0.0676,1.17241 0.35823,1.74523 0.29027,0.5728 0.82037,1.04443 1.39817,1.31338 1.15552,0.5379 2.49354,0.58272 4.53498,0.58272 h 2.331231 v 11.99998 12.00166 h -2.226111 c -2.00774,0 -3.38871,0.0811 -4.55364,0.6251 -0.58246,0.272 -1.11514,0.71952 -1.43139,1.28804 -0.31624,0.5685 -0.41147,1.18711 -0.41147,1.7847 0,0.59895 -0.008,1.3039 0.46673,2.01538 0.47203,0.71148 1.2727,1.06941 2.14254,1.25353 1.73976,0.36825 4.399941,0.35827 9.557351,0.35827 3.80139,0 6.23476,-0.0303 7.85412,-0.12428 1.61935,-0.094 2.44335,-0.1097 3.2864,-0.74481 0.27796,-0.20911 0.6222,-0.56498 0.82954,-0.99252 0.20743,-0.42752 0.30443,-0.87482 0.37697,-1.42185 0.14518,-1.09403 0.18603,-2.67585 0.23863,-5.5058 0.066,-3.54712 0.0587,-5.63426 -0.31882,-7.16791 -0.18884,-0.76684 -0.51394,-1.46076 -1.08064,-1.95554 -0.56654,-0.49477 -1.25911,-0.68358 -1.87737,-0.75728 -0.5901,-0.0703 -1.1757,-0.1319 -1.85203,0.10849 -0.67633,0.24035 -1.25179,0.89191 -1.50169,1.54862 -0.49962,1.31342 -0.46504,2.88958 -0.46504,5.78263 v 3.90523 h -0.92356 -0.92517 v -14.36907 z m -2.66919,2.73649 v 14.33416 17.03781 h 3.59436 3.59267 v -6.57396 c 0,-2.84483 0.14904,-4.43548 0.28891,-4.81339 0.0322,7.9e-4 0.15764,-0.024 0.5449,0.022 0.34359,0.0409 0.41043,0.0948 0.4385,0.1193 0.0281,0.0245 0.13287,0.12681 0.24515,0.58271 0.22455,0.91179 0.30514,2.97467 0.24024,6.48004 -0.0523,2.81767 -0.10931,4.40587 -0.21531,5.2045 -0.0499,0.37536 -0.1077,0.54361 -0.12716,0.58935 -0.0515,-0.0188 -0.63981,0.18575 -1.87238,0.25727 -1.49421,0.0867 -3.91375,0.11928 -7.70074,0.11928 -5.14776,0 -7.904061,-0.0672 -9.004161,-0.30007 -0.27153,-0.0575 -0.40102,-0.10528 -0.45805,-0.13011 -0.008,-0.055 -0.0346,-0.20839 -0.0346,-0.52825 0,-0.31063 0.0507,-0.44169 0.0756,-0.4867 0.0249,-0.045 0.0298,-0.0748 0.22609,-0.16667 0.3937,-0.18382 1.54343,-0.37532 3.42602,-0.37532 h 4.894821 v -14.67053 -14.66875 h -5.000021 c -1.93994,0 -3.0813,-0.181 -3.40849,-0.33333 -0.16367,-0.0762 -0.12603,-0.0672 -0.143,-0.10056 -0.0169,-0.0334 -0.0708,-0.19253 -0.0708,-0.53867 0,-0.25091 0.0273,-0.35378 0.0338,-0.37904 0.0217,-0.0154 0.0897,-0.0532 0.293,-0.11721 0.6793,-0.21402 2.48807,-0.37519 5.620531,-0.45263 z m -5.5594,5.62676 c 0.0402,0.11403 0.0796,0.2283 0.11807,0.34332 v -0.34332 z m -57.043574,11.38016 c 0.20976,0.33464 0.42024,0.66933 0.63587,1.00168 0.10705,0.16503 0.21619,0.32808 0.32461,0.4921 -0.10431,-0.15768 -0.21,-0.31389 -0.31295,-0.47256 -0.21981,-0.3388 -0.43447,-0.67982 -0.64753,-1.02122 z m 24.30711,2.81298 c 0.134561,0.94382 0.3214,1.82852 0.576439,2.80798 3.418462,13.12979 13.326894,23.2709 25.835824,26.44221 3.69892,0.93773 2.61289,1.02155 -2.53696,0.19576 -8.3909,-1.34525 -16.503673,-4.33862 -23.875303,-8.67497 z m -20.82213,2.25063 c 0.0748,0.0983 0.14887,0.19657 0.22359,0.29466 -0.0748,-0.0969 -0.14983,-0.19339 -0.22359,-0.29094 z m 1.34751,1.72192 v 0 c 1.30133,1.61465 2.66895,3.17206 4.10267,4.66295 h -0.008 C 21.93909,237.66476 20.57494,236.10627 19.27561,234.4921 Z m 66.368564,9.20366 c -2.7e-4,7.9e-4 0,0.006 0,0.006 0,0.006 0,0.006 5.3e-4,0.006 -5.3e-4,-0.002 -9e-5,-0.005 -0.0322,0.0187 0.0209,-0.0156 0.0281,-0.0236 0.0338,-0.0312 z m 3.33257,1.34164 c -0.0322,0.0771 -0.066,0.15456 -0.10352,0.23234 -0.10512,0.21671 -0.24104,0.424 -0.38823,0.61223 h 2.377 v 3.6675 h -14.61223 v -1.89693 c -0.0635,2e-5 -0.11163,5.3e-4 -0.17582,5.3e-4 -0.25222,0 -0.42916,-6e-5 -0.66957,0 v 2.74233 h 16.30341 v -5.35787 z m -67.016184,2.58646 -18.4255901,23.83166 4.29755,3.29759 c 2.14334,1.48963 4.1597801,1.74521 5.9202001,1.133 1.76051,-0.61223 3.31198,-1.95319 4.69077,-3.73649 0.9275,-1.19969 1.55059,-2.27118 1.86868,-3.2153 0.66113,-1.92066 0.71678,-3.32464 0.2203,-4.48047 1.38442,-0.12587 2.4353,-0.35284 3.39232,-0.85826 0.95719,-0.50543 1.70574,-1.27416 2.58314,-2.40898 1.83039,-2.3669 2.48412,-4.34453 2.194901,-6.16791 -0.289221,-1.82339 -1.60391,-3.45213 -3.672061,-5.03907 z m 102.857341,0.17455 -3.18948,2.64174 2.62463,3.16501 3.18997,-2.64173 z m -90.323312,0.78222 c 1.387793,0.9535 2.807121,1.85822 4.255641,2.71032 v 0.0108 c -1.4482,-0.85226 -2.868089,-1.75581 -4.255641,-2.70947 z m 95.209042,5.10931 -3.18957,2.64174 14.21491,17.14171 3.18949,-2.64131 z m -106.935481,0.081 c 0.29075,0.22318 0.994741,0.71154 1.27552,1.54698 0.28085,0.83539 0.13142,1.96066 -1.14716,3.6143 -1.2785,1.65362 -2.33235,2.08468 -3.2149,2.02742 -0.88246,-0.0572 -1.53619,-0.61018 -1.82702,-0.83333 z m 94.364381,2.5154 -3.51989,2.18204 2.8894,4.67539 -1.77723,1.10182 1.94766,3.15171 1.77724,-1.10184 5.99291,9.69741 c 0.68485,1.1083 1.70421,2.68002 3.00537,3.69371 1.30127,1.01365 2.91926,1.44779 4.9755,0.1733 0.55761,-0.34562 0.98895,-0.66111 1.29466,-0.94639 0.1529,-0.14264 0.2844,-0.31995 0.43721,-0.46259 l -2.11882,-3.42893 c -0.11806,0.12104 -0.25728,0.20774 -0.37535,0.32878 -0.22247,0.18586 -0.54949,0.43648 -0.82834,0.60929 -0.55753,0.34563 -1.15737,-0.002 -1.68202,-0.53824 -0.52462,-0.53698 -0.99563,-1.299 -1.35957,-1.88778 l -5.82166,-9.42017 2.40481,-1.49045 -1.94759,-3.15171 -2.40481,1.49044 z M 15.373809,263.3362 c 0.29091,0.22317 1.01976,0.67871 1.27552,1.54654 0.25576,0.86782 -0.0193,2.15557 -1.52324,4.101 -1.5041,1.94543 -2.68351,2.53859 -3.59107,2.51371 -0.90764,-0.0248 -1.5361901,-0.61057 -1.8271001,-0.83373 z m 15.30166,0.0332 -8.31457,16.35246 c -0.42659,0.83951 -0.70938,1.93476 -0.64343,2.88402 0.0474,0.98576 0.44324,1.91692 1.42729,2.41023 0.32799,0.16446 0.71187,0.21925 1.1326,0.20116 0.841601,-0.0362 1.61131,-0.29121 2.271391,-0.50997 0.274979,-0.0912 0.495041,-0.16401 0.586399,-0.16418 l -0.85367,1.67913 3.681229,1.84539 10.152132,-19.9659 -3.68123,-1.8454 -7.99913,15.73193 c -0.202041,0.1277 -0.403989,0.25536 -0.569031,0.31005 -0.385009,0.1276 -0.71509,0.23674 -1.115949,0.0357 -0.437291,-0.21922 -0.81901,-0.54773 -0.429331,-1.31421 l 8.03612,-15.80507 z m 78.644241,3.62634 c -0.74091,0 -1.59047,0.17888 -2.55988,0.60308 -1.79985,0.79584 -2.64531,2.07622 -2.9281,3.43019 -0.26718,1.39163 0.0817,2.87871 0.57982,4.08313 0.62259,1.50549 1.58107,2.42936 2.68206,3.16124 1.10115,0.7319 2.29785,1.15892 3.56355,1.64546 1.65499,0.67709 3.37874,1.41384 3.89236,2.65587 0.49802,1.20441 0.80051,2.57891 -0.29638,3.03699 -0.79423,0.33172 -1.42825,-0.0214 -1.95756,-0.55071 -0.51386,-0.49163 -0.87844,-1.26627 -1.11184,-1.83083 l -3.55528,1.48463 c 0.45145,1.0915 1.25646,2.60937 2.54202,3.57314 1.28567,0.96376 3.08317,1.44858 5.39027,0.48504 1.81543,-0.75823 2.69871,-2.05391 3.04157,-3.47715 0.32068,-1.36976 0.0474,-2.88882 -0.49752,-4.20614 -0.56035,-1.35497 -1.53459,-2.31609 -2.61307,-3.10141 -1.06326,-0.7477 -2.3827,-1.25621 -3.50371,-1.71488 -0.83871,-0.31184 -1.69286,-0.66133 -2.39566,-1.07399 -0.74074,-0.39685 -1.36141,-0.93206 -1.62594,-1.5719 -0.20245,-0.48929 -0.42684,-1.14517 -0.42684,-1.67581 -0.0354,-0.51483 0.1114,-1.01742 0.60306,-1.22277 0.60523,-0.25275 1.06335,-0.002 1.43928,0.36991 0.35356,0.42609 0.6028,1.02817 0.80509,1.51744 l 3.55527,-1.4846 c -0.48257,-1.16678 -1.18745,-2.54988 -2.28177,-3.37282 -0.61551,-0.46293 -1.3882,-0.76213 -2.3408,-0.76311 z m -61.384458,3.74232 c -0.770113,0.008 -1.509894,0.18933 -2.181634,0.59268 -1.194128,0.71706 -2.223047,2.16397 -2.937658,4.55445 l -2.799651,9.36615 c -0.714529,2.39048 -0.64625,4.15707 -0.0378,5.39943 0.608359,1.24235 1.784229,2.01078 3.194871,2.42187 1.685067,0.49106 3.044229,0.50391 4.187449,-0.18537 1.143213,-0.68931 2.031473,-2.09207 2.746083,-4.48255 l 0.62059,-2.0769 -3.957662,-1.15337 -0.89027,2.9784 c -0.386541,1.29321 -0.750562,1.65582 -1.651691,1.39318 -1.05804,-0.30834 -0.816189,-1.26029 -0.581901,-2.04405 l 3.455551,-11.56069 c 0.23436,-0.78374 0.554548,-1.71271 1.612593,-1.40441 0.90129,0.26264 1.00786,0.76207 0.62139,2.05528 l -0.77348,2.58646 3.95758,1.15338 0.50421,-1.68496 c 0.71445,-2.39048 0.74011,-4.04433 0.15917,-5.23609 -0.58095,-1.19174 -1.72938,-1.91004 -3.41437,-2.40107 -0.61704,-0.17986 -1.23442,-0.2782 -1.83337,-0.27182 z m 45.978411,1.28595 c -0.42096,-7e-5 -0.87402,0.0495 -1.36077,0.16002 -1.31807,0.29909 -2.25474,0.8042 -2.80174,1.55528 -1.1737,1.52025 -1.50917,3.2267 -1.16252,5.36325 l 2.42139,10.94473 c 0.27772,1.06549 0.72885,1.96647 1.27311,2.72068 0.95598,1.28775 2.59117,2.42123 5.18701,1.83209 1.31799,-0.29911 2.25466,-0.8043 2.841627,-1.56443 1.18262,-1.48045 1.49557,-3.09785 1.14885,-5.2344 l -0.55448,-2.50748 -3.754327,0.85204 0.52825,2.38778 c 0.0971,0.43779 0.13673,0.80528 0.0869,1.15087 -0.0274,0.63324 -0.28151,1.19228 -1.04035,1.3645 -0.35944,0.0815 -0.66571,0.0257 -0.90941,-0.12802 -0.45627,-0.35621 -0.82777,-0.89898 -1.05273,-1.72569 l -1.04783,-4.73606 6.669957,-1.51372 -1.399777,-6.32792 c -0.26887,-1.0257 -0.71123,-1.88669 -1.25566,-2.6409 -0.76954,-1.01396 -1.99318,-1.95233 -3.81747,-1.95262 z m -34.686611,1.64339 -2.01667,18.18869 c -0.10359,0.93382 0.0185,2.05558 0.41646,2.9181 0.3933,0.90318 1.09359,1.63274 2.1912,1.74648 0.36579,0.0379 0.74542,-0.046 1.13381,-0.21113 0.7767,-0.33023 1.40871,-0.83972 1.95056,-1.2764 0.22576,-0.18193 0.4064,-0.32733 0.49214,-0.35951 l -0.20743,1.86742 4.10598,0.42517 2.46216,-22.20821 -4.10557,-0.4252 -1.9401,17.49875 c -0.14461,0.19035 -0.2889,0.38045 -0.42434,0.48961 -0.31625,0.25473 -0.58705,0.47319 -1.03416,0.42686 -0.4878,-0.0505 -0.96209,-0.2231 -0.86734,-1.07564 l 1.94887,-17.57981 z m 24.421401,0.20989 c -1.51093,0.0938 -2.45943,0.7249 -3.07897,1.37657 -0.61729,0.69237 -0.86493,1.40264 -0.88987,1.69034 l -0.13753,-2.48503 -4.12431,0.25602 1.23442,22.2847 4.12431,-0.25603 -0.85745,-15.48129 c -0.0386,-0.69258 0.0458,-1.39269 0.78555,-2.09268 0.61962,-0.65164 1.39109,-0.78115 2.04442,-0.82169 0.36756,-0.0232 0.7779,-0.008 1.15214,0.0914 z m 10.07315,1.77057 c 0.21048,0.007 0.40287,0.0614 0.55528,0.15754 0.50501,0.38693 0.79673,0.94766 0.98171,1.78344 l 0.67786,3.06442 -2.91555,0.66169 -0.67793,-3.06443 c -0.0571,-0.44686 -0.0964,-0.81402 -0.0466,-1.15959 0.0676,-0.64233 0.27233,-1.23218 1.03118,-1.4044 0.1348,-0.0306 0.26766,-0.043 0.39402,-0.0387 z m 24.438447,13.38862 -2.67249,1.31629 1.39158,2.82542 0.89066,-0.43891 0.73899,3.74773 1.27262,-0.62676 -0.22978,-3.99834 z"
       style="font-style:normal;font-variant:normal;font-weight:normal;font-stretch:normal;font-size:50.79999924px;line-height:125%;font-family:'League Gothic';-inkscape-font-specification:'League Gothic';letter-spacing:7.50358343px;word-spacing:0px;writing-mode:lr-tb;fill:#000000;fill-opacity:1;stroke:none;stroke-width:0.2128012px;stroke-linecap:butt;stroke-linejoin:miter;stroke-opacity:1" />
  </g>
</svg>
